<svg width="24" height="24" viewBox="0 0 24 24" fill="none" xmlns="http://www.w3.org/2000/svg">
<g clip-path="url(#clip0_1152_1439)">
<path d="M11.6 10.3999C13.81 10.3999 15.6 8.6099 15.6 6.3999C15.6 4.1899 13.81 2.3999 11.6 2.3999C9.38998 2.3999 7.59998 4.1899 7.59998 6.3999C7.59998 8.6099 9.38998 10.3999 11.6 10.3999ZM11.6 12.3999C8.92998 12.3999 3.59998 13.7399 3.59998 16.3999V18.3999H19.6V16.3999C19.6 13.7399 14.27 12.3999 11.6 12.3999Z" fill="#C2CFE0"/>
<path d="M21.5935 17.3225L21.5935 17.3225L21.6003 17.3171C21.9662 17.0244 22.0419 16.524 21.8409 16.1444L21.8344 16.1322L21.8275 16.1202L21.089 14.8417C20.841 14.4039 20.3458 14.2943 19.9735 14.4184L19.952 14.4255L19.9309 14.434L19.377 14.6567C19.3686 14.6518 19.3603 14.647 19.3518 14.6421L19.2684 14.0528L19.2685 14.0528L19.2675 14.0466C19.1964 13.5726 18.7898 13.2505 18.3407 13.2505H16.8595C16.387 13.2505 16.005 13.5955 15.9373 14.0466L15.9373 14.0466L15.9364 14.0528L15.8529 14.6429C15.8448 14.6476 15.8367 14.6523 15.8286 14.657L15.2739 14.434L15.2739 14.434L15.266 14.4309C14.8401 14.2652 14.3482 14.432 14.1159 14.8415L13.3773 16.1202L13.3772 16.1202L13.3712 16.1311C13.1561 16.5183 13.2292 17.0298 13.6152 17.3254L14.073 17.683C14.0729 17.6898 14.0729 17.6966 14.0729 17.7034C14.0729 17.709 14.0729 17.7146 14.073 17.7203L13.6068 18.0844L13.6067 18.0843L13.5999 18.0898C13.234 18.3825 13.1584 18.8829 13.3593 19.2624L13.3658 19.2747L13.3727 19.2866L14.1112 20.5651C14.3592 21.003 14.8544 21.1126 15.2267 20.9885L15.2482 20.9813L15.2693 20.9728L15.8232 20.7501C15.8316 20.755 15.84 20.7599 15.8484 20.7647L15.9318 21.3541L15.9348 21.3752L15.9389 21.3961C16.0219 21.811 16.3815 22.1564 16.8595 22.1564H18.3407C18.7758 22.1564 19.2047 21.8437 19.2652 21.3441L19.3473 20.764C19.3554 20.7593 19.3635 20.7546 19.3716 20.7498L19.9263 20.9728L19.9263 20.9729L19.9342 20.976C20.3601 21.1416 20.852 20.9748 21.0843 20.5653L21.8229 19.2866L21.823 19.2867L21.8291 19.2757C22.0437 18.8893 21.9713 18.3791 21.5873 18.0832L21.1273 17.7195C21.1273 17.7142 21.1273 17.7088 21.1273 17.7034C21.1273 17.6978 21.1273 17.6922 21.1273 17.6866L21.5935 17.3225ZM17.6001 18.342C17.2506 18.342 16.9615 18.0529 16.9615 17.7034C16.9615 17.3539 17.2506 17.0648 17.6001 17.0648C17.9496 17.0648 18.2387 17.3539 18.2387 17.7034C18.2387 18.0529 17.9496 18.342 17.6001 18.342Z" fill="#C2CFE0" stroke="white" stroke-width="1.5"/>
<circle cx="17.6001" cy="17.6005" r="0.6" fill="white"/>
</g>
<defs>
<clipPath id="clip0_1152_1439">
<rect width="24" height="24" fill="white"/>
</clipPath>
</defs>
</svg>
