<svg width="16" height="16" viewBox="0 0 16 16" fill="none" xmlns="http://www.w3.org/2000/svg">
<path d="M13.6597 2.34106C10.5387 -0.780227 5.46096 -0.780226 2.34058 2.3403C-0.780396 5.46083 -0.780094 10.5388 2.34089 13.6599C5.46096 16.7803 10.5387 16.7803 13.6594 13.6593C16.7801 10.5388 16.7799 5.46113 13.6597 2.34106ZM12.7864 12.7866C10.1473 15.4257 5.85289 15.426 3.21361 12.7869C0.573869 10.1473 0.574171 5.85246 3.21361 3.21333C5.85274 0.574341 10.147 0.574039 12.7867 3.21363C15.4258 5.85276 15.4255 10.1476 12.7864 12.7866ZM5.01457 5.83391C5.01457 5.31736 5.4335 4.89843 5.95005 4.89843C6.46644 4.89843 6.88538 5.31721 6.88538 5.83391C6.88538 6.35075 6.46644 6.76954 5.95005 6.76954C5.4335 6.76954 5.01457 6.35075 5.01457 5.83391ZM9.25628 5.83391C9.25628 5.31736 9.67552 4.89843 10.1921 4.89843C10.7085 4.89843 11.1274 5.31721 11.1274 5.83391C11.1274 6.35075 10.7086 6.76954 10.1921 6.76954C9.67552 6.76954 9.25628 6.35075 9.25628 5.83391ZM11.4679 9.66529C10.8881 11.006 9.53039 11.8722 8.00913 11.8722C6.45512 11.8722 5.08939 11.0016 4.52971 9.65412C4.43376 9.42346 4.54313 9.15855 4.7741 9.0626C4.83082 9.03922 4.88966 9.02806 4.94759 9.02806C5.125 9.02806 5.29336 9.1329 5.36562 9.30715C5.78455 10.3158 6.82217 10.9672 8.00913 10.9672C9.16924 10.9672 10.2008 10.3153 10.6371 9.30609C10.7364 9.07663 11.0028 8.97088 11.2321 9.0703C11.4614 9.16971 11.5671 9.43598 11.4679 9.66529Z" fill="#C2CFE0"/>
</svg>
