<svg width="20" height="20" viewBox="0 0 20 20" fill="none" xmlns="http://www.w3.org/2000/svg">
<g clip-path="url(#clip0_1152_1422)">
<path d="M13.3257 5.63634V13.9999C13.3257 15.6072 12.0239 16.909 10.4166 16.909C8.80934 16.909 7.50753 15.6072 7.50753 13.9999V4.90908C7.50753 3.90544 8.32207 3.0909 9.3257 3.0909C10.3293 3.0909 11.1439 3.90544 11.1439 4.90908V12.5454C11.1439 12.9454 10.8166 13.2727 10.4166 13.2727C10.0166 13.2727 9.68934 12.9454 9.68934 12.5454V5.63634H8.59843V12.5454C8.59843 13.549 9.41297 14.3636 10.4166 14.3636C11.4202 14.3636 12.2348 13.549 12.2348 12.5454V4.90908C12.2348 3.30181 10.933 2 9.3257 2C7.71844 2 6.41663 3.30181 6.41663 4.90908V13.9999C6.41663 16.2108 8.20571 17.9999 10.4166 17.9999C12.6275 17.9999 14.4166 16.2108 14.4166 13.9999V5.63634H13.3257Z" fill="#334D6E"/>
</g>
<defs>
<clipPath id="clip0_1152_1422">
<rect width="20" height="20" fill="white"/>
</clipPath>
</defs>
</svg>
