<svg width="20" height="20" viewBox="0 0 20 20" fill="none" xmlns="http://www.w3.org/2000/svg">
<g clip-path="url(#clip0_1152_1419)">
<path d="M3.25002 10.0002C3.25002 8.57516 4.40835 7.41683 5.83335 7.41683H9.16669V5.8335H5.83335C3.53335 5.8335 1.66669 7.70016 1.66669 10.0002C1.66669 12.3002 3.53335 14.1668 5.83335 14.1668H9.16669V12.5835H5.83335C4.40835 12.5835 3.25002 11.4252 3.25002 10.0002ZM6.66669 10.8335H13.3334V9.16683H6.66669V10.8335ZM14.1667 5.8335H10.8334V7.41683H14.1667C15.5917 7.41683 16.75 8.57516 16.75 10.0002C16.75 11.4252 15.5917 12.5835 14.1667 12.5835H10.8334V14.1668H14.1667C16.4667 14.1668 18.3334 12.3002 18.3334 10.0002C18.3334 7.70016 16.4667 5.8335 14.1667 5.8335Z" fill="#334D6E"/>
</g>
<defs>
<clipPath id="clip0_1152_1419">
<rect width="20" height="20" fill="white"/>
</clipPath>
</defs>
</svg>
